<svg width="32" height="32" viewBox="0 0 32 32" fill="none" xmlns="http://www.w3.org/2000/svg">
  <defs>
    <linearGradient id="sky" x1="0" y1="0" x2="0" y2="32" gradientUnits="userSpaceOnUse">
      <stop stop-color="#1e88e5"/>
      <stop offset="1" stop-color="#0a0e1a"/>
    </linearGradient>
    <radialGradient id="sun" cx="0.3" cy="0.32" r="0.7">
      <stop stop-color="#ffd08a"/>
      <stop offset="1" stop-color="#ff8a3d"/>
    </radialGradient>
  </defs>
  <rect width="32" height="32" rx="7" fill="url(#sky)"/>
  <circle cx="11" cy="11" r="4.6" fill="url(#sun)"/>
  <path d="M24.2 20.4c1.9 0 3.2-1.4 3.2-3 0-1.6-1.3-2.9-3-3-.1-2-1.8-3.6-3.9-3.6-1.4 0-2.6.7-3.3 1.8-.5-.3-1.1-.5-1.7-.5-1.7 0-3.1 1.3-3.2 3-1.5.1-2.7 1.4-2.7 2.9 0 1.6 1.3 2.9 3 2.9h11.6z" fill="#e8f0ff" opacity="0.92"/>
</svg>
